<?xml version="1.0" encoding="UTF-8" standalone="no"?>
<!-- Created with Inkscape (http://www.inkscape.org/) -->

<svg
   viewBox="0 0 541.86665 541.86667"
   version="1.1"
   id="svg1"
   preserveAspectRatio="xMidYMid meet"
   inkscape:version="1.4.2 (f4327f4, 2025-05-13)"
   sodipodi:docname="thaqib_ibn_fadl.svg"
   xml:space="preserve"
   inkscape:export-filename="thaqib_ibn_fadl.png"
   inkscape:export-xdpi="96"
   inkscape:export-ydpi="96"
   xmlns:inkscape="http://www.inkscape.org/namespaces/inkscape"
   xmlns:sodipodi="http://sodipodi.sourceforge.net/DTD/sodipodi-0.dtd"
   xmlns:xlink="http://www.w3.org/1999/xlink"
   xmlns="http://www.w3.org/2000/svg"
   xmlns:svg="http://www.w3.org/2000/svg"><sodipodi:namedview
     id="namedview1"
     pagecolor="#505050"
     bordercolor="#ffffff"
     borderopacity="1"
     inkscape:showpageshadow="0"
     inkscape:pageopacity="0"
     inkscape:pagecheckerboard="1"
     inkscape:deskcolor="#505050"
     inkscape:document-units="mm"
     inkscape:zoom="0.3071921"
     inkscape:cx="955.42822"
     inkscape:cy="1061.2252"
     inkscape:window-width="1278"
     inkscape:window-height="1000"
     inkscape:window-x="633"
     inkscape:window-y="0"
     inkscape:window-maximized="0"
     inkscape:current-layer="svg1" /><defs
     id="defs1"><linearGradient
       id="linearGradient239"
       inkscape:collect="always"><stop
         style="stop-color:#ffffff;stop-opacity:1;"
         offset="0"
         id="stop239" /><stop
         style="stop-color:#ededed;stop-opacity:1;"
         offset="1"
         id="stop240" /></linearGradient><filter
       style="color-interpolation-filters:sRGB;"
       inkscape:label="Drop Shadow"
       id="filter238"
       x="-0.029229127"
       y="-0.034270733"
       width="1.0633298"
       height="1.0771092"><feFlood
         result="flood"
         in="SourceGraphic"
         flood-opacity="0.498039"
         flood-color="rgb(0,0,0)"
         id="feFlood237" /><feGaussianBlur
         result="blur"
         in="SourceGraphic"
         stdDeviation="3.000000"
         id="feGaussianBlur237" /><feOffset
         result="offset"
         in="blur"
         dx="1.200000"
         dy="1.800000"
         id="feOffset237" /><feComposite
         result="comp1"
         operator="in"
         in="flood"
         in2="offset"
         id="feComposite237" /><feComposite
         result="comp2"
         operator="over"
         in="SourceGraphic"
         in2="comp1"
         id="feComposite238" /></filter><radialGradient
       inkscape:collect="always"
       xlink:href="#linearGradient239"
       id="radialGradient240"
       cx="263.64664"
       cy="274.05602"
       fx="263.64664"
       fy="274.05602"
       r="221.37057"
       gradientTransform="matrix(1,0,0,0.85288884,0,40.3167)"
       gradientUnits="userSpaceOnUse" /><filter
       style="color-interpolation-filters:sRGB;"
       inkscape:label="Drop Shadow"
       id="filter244"
       x="-0.061224078"
       y="-0.071784358"
       width="1.1332897"
       height="1.1626361"><feFlood
         result="flood"
         in="SourceGraphic"
         flood-opacity="0.498039"
         flood-color="rgb(0,0,0)"
         id="feFlood243" /><feGaussianBlur
         result="blur"
         in="SourceGraphic"
         stdDeviation="2.2943409"
         id="feGaussianBlur243" /><feOffset
         result="offset"
         in="blur"
         dx="1.200000"
         dy="1.800000"
         id="feOffset243" /><feComposite
         result="comp1"
         operator="in"
         in="flood"
         in2="offset"
         id="feComposite243" /><feComposite
         result="fbSourceGraphic"
         operator="over"
         in="SourceGraphic"
         in2="comp1"
         id="feComposite244" /><feColorMatrix
         result="fbSourceGraphicAlpha"
         in="fbSourceGraphic"
         values="0 0 0 -1 0 0 0 0 -1 0 0 0 0 -1 0 0 0 0 1 0"
         id="feColorMatrix248" /><feFlood
         id="feFlood248"
         result="flood"
         in="fbSourceGraphic"
         flood-opacity="0.498039"
         flood-color="rgb(0,0,0)" /><feGaussianBlur
         id="feGaussianBlur248"
         result="blur"
         in="fbSourceGraphic"
         stdDeviation="3.000000" /><feOffset
         id="feOffset248"
         result="offset"
         in="blur"
         dx="1.200000"
         dy="1.800000" /><feComposite
         id="feComposite248"
         result="comp1"
         operator="in"
         in="flood"
         in2="offset" /><feComposite
         id="feComposite249"
         result="fbSourceGraphic"
         operator="over"
         in="fbSourceGraphic"
         in2="comp1" /><feColorMatrix
         result="fbSourceGraphicAlpha"
         in="fbSourceGraphic"
         values="0 0 0 -1 0 0 0 0 -1 0 0 0 0 -1 0 0 0 0 1 0"
         id="feColorMatrix249" /><feFlood
         id="feFlood249"
         result="flood"
         in="fbSourceGraphic"
         flood-opacity="0.498039"
         flood-color="rgb(0,0,0)" /><feGaussianBlur
         id="feGaussianBlur249"
         result="blur"
         in="fbSourceGraphic"
         stdDeviation="3.000000" /><feOffset
         id="feOffset249"
         result="offset"
         in="blur"
         dx="1.200000"
         dy="1.800000" /><feComposite
         id="feComposite250"
         result="comp1"
         operator="in"
         in="flood"
         in2="offset" /><feComposite
         id="feComposite251"
         result="fbSourceGraphic"
         operator="over"
         in="fbSourceGraphic"
         in2="comp1" /><feColorMatrix
         result="fbSourceGraphicAlpha"
         in="fbSourceGraphic"
         values="0 0 0 -1 0 0 0 0 -1 0 0 0 0 -1 0 0 0 0 1 0"
         id="feColorMatrix251" /><feFlood
         id="feFlood251"
         result="flood"
         in="fbSourceGraphic"
         flood-opacity="0.498039"
         flood-color="rgb(0,0,0)" /><feGaussianBlur
         id="feGaussianBlur251"
         result="blur"
         in="fbSourceGraphic"
         stdDeviation="3.000000" /><feOffset
         id="feOffset251"
         result="offset"
         in="blur"
         dx="1.200000"
         dy="1.800000" /><feComposite
         id="feComposite252"
         result="comp1"
         operator="in"
         in="flood"
         in2="offset" /><feComposite
         id="feComposite253"
         result="comp2"
         operator="over"
         in="fbSourceGraphic"
         in2="comp1" /></filter><filter
       style="color-interpolation-filters:sRGB;"
       inkscape:label="Drop Shadow"
       id="filter246"
       x="-0.006185343"
       y="-0.0072310916"
       width="1.015063"
       height="1.0192287"><feFlood
         result="flood"
         in="SourceGraphic"
         flood-opacity="0.498039"
         flood-color="rgb(0,0,0)"
         id="feFlood245" /><feGaussianBlur
         result="blur"
         in="SourceGraphic"
         stdDeviation="0.51271882"
         id="feGaussianBlur245" /><feOffset
         result="offset"
         in="blur"
         dx="1.200000"
         dy="1.800000"
         id="feOffset245" /><feComposite
         result="comp1"
         operator="in"
         in="flood"
         in2="offset"
         id="feComposite245" /><feComposite
         result="comp2"
         operator="over"
         in="SourceGraphic"
         in2="comp1"
         id="feComposite246" /></filter><filter
       style="color-interpolation-filters:sRGB;"
       inkscape:label="Drop Shadow"
       id="filter266"
       x="-0.081311622"
       y="-0.095336717"
       width="1.1761752"
       height="1.2145076"><feFlood
         result="flood"
         in="SourceGraphic"
         flood-opacity="0.498039"
         flood-color="rgb(0,0,0)"
         id="feFlood265" /><feGaussianBlur
         result="blur"
         in="SourceGraphic"
         stdDeviation="3.000000"
         id="feGaussianBlur265" /><feOffset
         result="offset"
         in="blur"
         dx="1.200000"
         dy="1.800000"
         id="feOffset265" /><feComposite
         result="comp1"
         operator="in"
         in="flood"
         in2="offset"
         id="feComposite265" /><feComposite
         result="fbSourceGraphic"
         operator="over"
         in="SourceGraphic"
         in2="comp1"
         id="feComposite266" /><feColorMatrix
         result="fbSourceGraphicAlpha"
         in="fbSourceGraphic"
         values="0 0 0 -1 0 0 0 0 -1 0 0 0 0 -1 0 0 0 0 1 0"
         id="feColorMatrix266" /><feFlood
         id="feFlood266"
         result="flood"
         in="fbSourceGraphic"
         flood-opacity="0.498039"
         flood-color="rgb(0,0,0)" /><feGaussianBlur
         id="feGaussianBlur266"
         result="blur"
         in="fbSourceGraphic"
         stdDeviation="3.000000" /><feOffset
         id="feOffset266"
         result="offset"
         in="blur"
         dx="1.200000"
         dy="1.800000" /><feComposite
         id="feComposite267"
         result="comp1"
         operator="in"
         in="flood"
         in2="offset" /><feComposite
         id="feComposite268"
         result="fbSourceGraphic"
         operator="over"
         in="fbSourceGraphic"
         in2="comp1" /><feColorMatrix
         result="fbSourceGraphicAlpha"
         in="fbSourceGraphic"
         values="0 0 0 -1 0 0 0 0 -1 0 0 0 0 -1 0 0 0 0 1 0"
         id="feColorMatrix268" /><feFlood
         id="feFlood268"
         result="flood"
         in="fbSourceGraphic"
         flood-opacity="0.498039"
         flood-color="rgb(0,0,0)" /><feGaussianBlur
         id="feGaussianBlur268"
         result="blur"
         in="fbSourceGraphic"
         stdDeviation="3.000000" /><feOffset
         id="feOffset268"
         result="offset"
         in="blur"
         dx="1.200000"
         dy="1.800000" /><feComposite
         id="feComposite269"
         result="comp1"
         operator="in"
         in="flood"
         in2="offset" /><feComposite
         id="feComposite270"
         result="fbSourceGraphic"
         operator="over"
         in="fbSourceGraphic"
         in2="comp1" /><feColorMatrix
         result="fbSourceGraphicAlpha"
         in="fbSourceGraphic"
         values="0 0 0 -1 0 0 0 0 -1 0 0 0 0 -1 0 0 0 0 1 0"
         id="feColorMatrix270" /><feFlood
         id="feFlood270"
         result="flood"
         in="fbSourceGraphic"
         flood-opacity="0.498039"
         flood-color="rgb(0,0,0)" /><feGaussianBlur
         id="feGaussianBlur270"
         result="blur"
         in="fbSourceGraphic"
         stdDeviation="3.000000" /><feOffset
         id="feOffset270"
         result="offset"
         in="blur"
         dx="1.200000"
         dy="1.800000" /><feComposite
         id="feComposite271"
         result="comp1"
         operator="in"
         in="flood"
         in2="offset" /><feComposite
         id="feComposite272"
         result="fbSourceGraphic"
         operator="over"
         in="fbSourceGraphic"
         in2="comp1" /><feColorMatrix
         result="fbSourceGraphicAlpha"
         in="fbSourceGraphic"
         values="0 0 0 -1 0 0 0 0 -1 0 0 0 0 -1 0 0 0 0 1 0"
         id="feColorMatrix272" /><feFlood
         id="feFlood272"
         result="flood"
         in="fbSourceGraphic"
         flood-opacity="0.498039"
         flood-color="rgb(0,0,0)" /><feGaussianBlur
         id="feGaussianBlur272"
         result="blur"
         in="fbSourceGraphic"
         stdDeviation="3.000000" /><feOffset
         id="feOffset272"
         result="offset"
         in="blur"
         dx="1.200000"
         dy="1.800000" /><feComposite
         id="feComposite273"
         result="comp1"
         operator="in"
         in="flood"
         in2="offset" /><feComposite
         id="feComposite274"
         result="comp2"
         operator="over"
         in="fbSourceGraphic"
         in2="comp1" /></filter></defs><path
     id="path242"
     style="font-size:111.128px;font-family:'A Thuluth';-inkscape-font-specification:'A Thuluth';letter-spacing:0px;display:inline;opacity:1;mix-blend-mode:normal;fill:url(#radialGradient240);stroke:none;stroke-width:4.24642;stroke-linecap:round;stroke-linejoin:round;stroke-opacity:0;paint-order:stroke fill markers;filter:url(#filter266)"
     d="m 353.22577,85.251534 c -0.5506,0 -1.57676,1.824732 -2.28007,4.055001 l -1.27879,4.055002 4.37887,6.895073 c 2.40814,3.79232 5.33729,9.65167 6.50959,13.02054 1.92533,5.53361 2.13163,7.17947 2.13163,17.04225 0,6.00442 0.1838,10.91728 0.40888,10.91724 0.22501,-9e-5 0.97637,-2.39373 1.66967,-5.31896 2.3111,-9.75062 1.33419,-24.92997 -2.29492,-35.66332 -1.79264,-5.301924 -7.7704,-15.002826 -9.24486,-15.002826 z m 50.38007,43.186776 c -11.84595,5.7498 -21.0941,10.32237 -27.74448,13.71683 -16.48738,8.79789 -28.29861,15.20543 -35.4339,19.22336 l -0.51908,5.61223 c 15.10188,-8.38224 26.94778,-14.79112 35.53781,-19.22471 12.81582,-6.44254 22.06395,-11.01377 27.74448,-13.71548 z m -51.94628,2.04707 c -1.05474,0.004 -1.59332,2.35589 -1.18345,5.98466 0.13606,1.20473 0.007,1.81615 -0.21095,1.01882 -0.09,-0.32524 -0.50084,-1.1269 -0.91356,-1.78124 -1.93981,-3.07552 -3.86257,-3.99745 -4.28261,-2.05381 -0.26252,1.21515 -0.19061,1.43015 0.68506,2.04887 0.58853,0.41584 0.83503,0.46952 1.27835,0.27752 0.68781,-0.29791 1.05037,0.0567 2.48833,2.43391 1.45479,2.40503 1.47899,2.58765 0.55056,4.22232 -0.71017,1.25031 -4.32063,5.46668 -6.67017,7.78929 -0.50324,0.49747 -0.93843,1.00169 -0.96978,1.12092 v 4.5e-4 c -0.0872,0.34603 0.15421,0.22753 1.96654,-0.96348 2.04485,-1.34383 2.99282,-2.16154 4.32624,-3.73249 2.20354,-2.5961 2.90305,-5.17078 2.59853,-9.56333 -0.26549,-3.83007 0.0633,-4.98087 1.1569,-4.0514 0.62841,0.53408 0.94805,0.42257 0.9167,-0.32116 -0.0352,-0.87706 -0.19418,-1.27604 -0.73903,-1.8568 -0.36675,-0.39088 -0.70236,-0.57404 -0.99766,-0.57305 z m -27.38689,2.65475 c -0.34636,0 -0.62343,0.17359 -0.83124,0.51998 -1.24695,5.12633 -2.35602,9.31751 -3.32587,12.57342 0,0.41565 1.24716,4.70983 3.74104,12.88425 2.771,8.86716 4.53758,15.93357 5.29961,21.19845 2.7017,17.94215 5.09121,37.23539 7.16945,57.87924 1.87044,18.49635 3.81019,31.03484 5.81915,37.61592 1.52404,5.05707 4.32957,9.8716 8.41676,14.44372 5.07542,5.66107 10.54885,8.66419 16.41882,9.00783 v 0.0324 c 0.18342,0 0.36736,-0.002 0.55326,-0.009 0.19591,0.005 0.39337,0.009 0.59016,0.009 v -0.0365 c 3.9566,-0.25258 8.45945,-1.79917 13.50858,-4.63929 4.84923,-2.70171 8.41617,-5.40287 10.70222,-8.1046 5.81907,-6.78892 8.24365,-13.82027 7.27382,-21.0941 -0.69276,-4.91851 -3.81039,-10.59926 -9.35237,-17.0418 -6.16545,-6.99675 -9.55968,-11.43125 -10.18316,-13.30166 1.45477,0.27708 3.18674,0.41607 5.19571,0.41607 1.17768,0 1.76638,-0.34632 1.76638,-1.03905 0,-0.83132 -0.86576,-1.97456 -2.59762,-3.42933 -5.05707,-3.74083 -9.31794,-6.8234 -12.78169,-9.24801 -1.03912,-0.96986 -1.7659,-0.38113 -2.18156,1.76638 -0.55419,4.43357 -0.93559,7.96725 -1.1434,10.59969 -0.2771,0.76202 0.38133,1.14251 1.97464,1.14251 2.42461,7.27383 6.78941,14.54759 13.09341,21.82143 6.65038,7.62024 10.46016,12.64256 11.43001,15.06715 0.5542,1.31624 -2.21671,3.672 -8.31286,7.06646 -6.52552,3.5291 -12.79514,5.3624 -18.80863,5.49932 -3.8816,-0.15457 -7.79556,-2.47276 -11.74174,-6.95399 -5.19561,-5.88834 -8.45131,-14.09759 -9.76753,-24.62734 -0.76203,-9.07499 -1.48972,-18.1504 -2.18247,-27.2254 -1.45476,-16.69521 -3.42915,-33.00931 -5.92303,-48.9425 -1.45478,-9.00571 -3.63695,-18.39192 -6.54648,-28.15965 -3.11737,-10.46048 -5.54149,-15.69103 -7.27337,-15.69103 z m -34.00083,13.85807 c -1.5667,-0.062 -4.886,7.26537 -6.75834,15.21919 -1.4065,5.97546 -1.47916,10.0238 -0.21007,11.69585 h -4.5e-4 c 0.42973,0.5661 1.62405,0.88612 3.30609,0.88612 2.25395,0 2.93669,-0.29942 4.74005,-2.0808 1.76724,-1.74567 2.1971,-2.64354 2.6687,-5.57085 0.75142,-4.66436 0.0956,-6.98058 -2.94623,-10.40266 l -2.46268,-2.77036 1.14026,-3.25749 c 0.62707,-1.79152 1.0237,-3.38458 0.88162,-3.53997 -0.10569,-0.11552 -0.22631,-0.17377 -0.35895,-0.17902 z m 104.2187,1.72141 c -1.41784,0 -2.61033,3.41254 -3.58227,10.25018 l -0.68774,4.83811 -0.54248,-3.10636 c -0.72354,-4.1445 -1.47656,-6.35503 -2.77484,-8.14374 -1.50632,-2.07528 -2.22262,-1.94067 -3.24986,0.61084 -0.66146,1.6435 -0.77723,2.28736 -0.53707,2.99166 0.51492,1.50974 1.7771,2.53606 2.71954,2.21125 0.79175,-0.27287 0.90245,-0.12035 1.60266,2.20495 0.87292,2.89897 2.00703,8.02507 2.00703,9.07168 0,0.39644 0.13139,0.72104 0.29193,0.72104 0.54824,0 1.19702,-2.74192 1.92561,-8.13969 1.09806,-8.1348 1.8046,-9.64165 3.41087,-7.27381 0.70604,1.04071 0.72593,1.04316 1.14432,0.14528 0.67987,-1.45889 0.51244,-3.31222 -0.44441,-4.91953 -0.47858,-0.80392 -1.05627,-1.46187 -1.28329,-1.46187 z m -179.77892,9.39285 c -1.52406,1e-5 -3.3941,1.48957 -5.61088,4.46837 -2.21678,2.97881 -3.32541,5.23025 -3.32541,6.75429 0,2.70171 0.86622,4.81417 2.59808,6.33822 1.87042,1.17767 3.74045,2.35555 5.61087,3.53322 -1.93969,4.22576 -7.65414,10.46059 -17.1448,18.70428 -5.74979,4.98778 -11.46517,9.94084 -17.14571,14.85935 0.20782,0.48492 0.62294,0.72733 1.24642,0.72733 2.97882,0 9.04093,-4.19118 18.1852,-12.57343 9.07498,-8.38224 15.10115,-15.23997 18.07996,-20.57412 2.42459,1.45477 4.60767,2.49368 6.54738,3.11715 0.69273,0.20782 1.28145,-0.41597 1.76638,-1.87074 0.5542,-1.52404 0.62305,-2.87463 0.20736,-4.0523 -1.9397,-1.80115 -3.8097,-3.15174 -5.61088,-4.0523 0.96986,-2.56317 1.45422,-4.95357 1.45422,-7.17036 0,-5.47269 -2.28608,-8.20895 -6.85819,-8.20896 z m 45.15378,0.56766 c -2.86802,0 -5.28082,6.1021 -7.24684,18.32914 l -1.39079,8.65112 -1.09708,-5.55466 c -1.46361,-7.41117 -2.98733,-11.36346 -5.61357,-14.56202 -3.04701,-3.71101 -4.49593,-3.47048 -6.57392,1.09213 -1.33847,2.9389 -1.5722,4.09011 -1.08628,5.34955 1.04163,2.6997 3.59431,4.5346 5.50068,3.95379 1.60157,-0.48794 1.8254,-0.21557 3.24175,3.94255 1.02666,3.014 2.23223,7.37445 3.06137,10.86461 -0.66112,0.2592 -1.29657,0.66538 -1.69217,1.12002 -1.20455,1.38428 -3.3954,9.35476 -2.7546,10.02123 0.17847,0.18558 1.22628,-0.56137 2.32865,-1.65979 1.44571,-1.44058 2.40825,-1.86362 3.45361,-1.51854 2.11494,0.69814 1.77751,1.59638 -0.95089,2.53286 -3.03127,1.04046 -5.71123,4.31475 -6.32744,7.73081 -0.32271,1.78913 0.24903,6.60348 1.7709,14.91602 1.23602,6.75076 2.51683,16.32321 2.84593,21.27222 0.32922,4.94903 0.63692,9.16015 0.68369,9.35822 h -4.5e-4 c 0.0471,0.19796 0.38976,-0.61191 0.76197,-1.79967 0.93675,-2.98916 0.87907,-17.01476 -0.0976,-23.71603 -0.44485,-3.05189 -1.5577,-8.19632 -2.47304,-11.43226 -1.66073,-5.8717 -1.66147,-5.88576 -0.27934,-7.08805 1.49444,-1.29996 5.56282,-2.98317 10.05496,-4.1598 2.2199,-0.58148 3.05475,-1.27132 3.9799,-3.28899 0.64385,-1.4043 1.17083,-2.98458 1.17083,-3.51163 0,-2.20729 -4.77348,-6.57395 -8.47209,-8.32186 0.47312,-2.205 0.96784,-4.99459 1.48212,-8.36279 2.22118,-14.54664 3.65035,-17.2412 6.89956,-13.00704 1.42818,1.86098 1.46788,1.86554 2.31426,0.25998 1.37526,-2.60879 1.0364,-5.92313 -0.89916,-8.7973 -0.96811,-1.43757 -2.13569,-2.61382 -2.59493,-2.61382 z m 26.86511,1.95935 c 1.05104,0.0245 5.75572,4.07793 5.75572,4.95866 0,0.45504 -1.26298,1.51541 -2.8068,2.35654 -1.54378,0.84115 -3.07488,1.52934 -3.40277,1.52934 -0.87619,0 -1.89279,-1.27572 -1.89279,-2.37543 0,-1.7592 1.7139,-6.48454 2.34664,-6.46911 z m -72.53796,4.33118 c 2.14754,0 3.22106,1.73198 3.22106,5.19571 0,0.90057 -0.13804,1.76678 -0.41517,2.59808 -4.01794,-2.14752 -5.92396,-3.98383 -5.71614,-5.50788 0.20782,-1.24694 0.93596,-1.97373 2.18291,-2.18155 0.20781,-0.0693 0.45022,-0.10436 0.72734,-0.10436 z m 148.42338,3.81121 c -2.56317,8.79789 -3.84405,13.09341 -3.84405,12.88559 0,1.31622 1.03891,2.52784 3.11717,3.63623 4.08718,2.00897 8.17358,4.05262 12.2608,6.13086 2.84026,-3.53301 4.26057,-7.61941 4.26057,-12.26081 0,-1.31622 -1.83542,-2.84086 -5.50698,-4.57273 -5.05707,-2.35534 -8.48636,-4.2951 -10.28751,-5.81914 z m 19.22382,17.66523 c -0.6235,0 -1.66241,1.80123 -3.11717,5.40352 -1.45476,3.53301 -2.182,5.54248 -2.182,6.0274 0,0.96985 4.60631,4.12077 13.81984,9.45492 1.31622,-1.45477 2.52875,-3.80919 3.63712,-7.0651 0.96987,-2.70171 1.45467,-4.60774 1.45467,-5.71614 0,-1.38549 -4.53751,-4.08667 -13.61246,-8.1046 z m -265.39005,1.74345 c -0.84348,0.009 -1.64917,0.16356 -2.46943,0.44935 -3.12953,1.09037 -3.81625,4.43798 -1.79068,8.72849 0.71248,1.50914 1.43976,4.40728 1.61615,6.44032 0.63611,7.3315 3.38302,11.12784 8.03939,11.11066 1.07001,-0.004 2.06107,0.32537 2.2027,0.73183 0.46196,1.32592 -2.05924,8.22707 -5.12779,14.0353 -3.65037,6.90953 -4.11109,10.57065 -1.99759,15.87681 1.2468,3.13032 1.91025,3.96706 3.50174,4.41528 1.76436,0.49694 4.21024,-0.13965 6.85999,-1.52214 -0.14832,0.46575 -0.29488,0.94181 -0.43946,1.42814 -1.52404,5.12632 -2.28681,9.49112 -2.28681,13.09341 0,11.56887 4.71154,20.3659 14.1329,26.3928 6.81875,4.32938 15.75101,6.96753 26.79719,7.91479 4.14754,25.79991 7.18475,47.14969 7.18475,53.96369 0,2.21061 -0.0973,3.99898 -0.29237,5.36437 -1.04029,6.3718 -9.8179,15.6369 -26.33254,27.79532 -17.22985,12.67856 -31.04625,19.01779 -41.44918,19.01779 -18.660243,0 -27.990523,-9.59055 -27.990523,-28.77094 0,-8.71245 1.593293,-16.74184 4.779188,-24.08891 0.715201,-1.69046 1.072788,-2.9909 1.072788,-3.90117 0,-0.29852 -0.03413,-0.53496 -0.102108,-0.70889 3.432343,-8.51988 4.956364,-10.19164 6.16549,-7.01608 0.692448,1.81876 1.097767,1.77904 2.209897,-0.21589 1.203705,-2.15911 1.23351,-3.36057 0.142584,-5.73413 -0.745071,-1.62078 -1.052738,-1.84845 -2.144677,-1.58333 -1.838306,0.44639 -4.347036,4.50451 -6.90812,11.17499 -0.630958,1.64339 -1.224937,3.15036 -1.660234,4.22007 -0.24419,0.31885 -0.495922,0.70072 -0.754774,1.14565 0.0083,-0.45489 0.0624,-1.20422 0.155183,-2.07134 0.39151,-3.65953 -0.660874,-11.15124 -1.815416,-12.92382 -0.70444,-1.08154 -1.316028,-1.65012 -1.957555,-1.68319 -0.824825,-0.0424 -1.699088,0.80029 -2.883707,2.57649 -1.020195,1.52971 -2.844459,3.74067 -4.053653,4.91324 -2.449006,2.37477 -10.985611,7.61722 -19.644826,12.06424 -3.132232,1.60858 -6.048279,3.21597 -6.479905,3.57147 v -4.5e-4 c -0.431604,0.35552 -0.580634,0.69096 -0.331507,0.74533 0.958263,0.20865 10.771484,-2.72463 13.594036,-4.0631 5.794319,-2.7477 11.758076,-7.65336 14.509842,-11.93605 l 0.97293,-1.51406 0.942794,1.44748 c 1.065498,1.63586 1.831968,1.95717 2.734821,1.1461 0.461835,-0.4149 0.731005,-0.007 1.056144,1.60266 0.414745,2.05258 0.753333,8.02703 0.727786,11.40483 -3.858881,9.22864 -5.788553,18.35417 -5.788553,27.377 0,10.79305 2.666052,19.60322 7.997551,26.43014 5.526555,7.02197 12.873363,10.53312 22.040944,10.53312 10.07783,0 21.39113,-3.77141 33.93966,-11.31353 11.3782,-6.82692 21.19598,-15.08401 29.4533,-24.77172 8.25732,-9.68773 12.22336,-17.78273 11.89826,-24.28456 1.7555,14.69412 4.32378,24.57708 7.70473,29.64851 2.56977,3.94427 6.6124,6.05443 12.09349,6.3733 v 0.0635 c 0.25974,0 0.51642,-0.004 0.77051,-0.009 0.22831,0.005 0.45914,0.009 0.69226,0.009 v -0.0329 c 4.44488,-0.20494 7.98856,-1.36418 10.63071,-3.4779 2.92582,-2.40566 5.98159,-6.89225 9.1675,-13.45909 4.16118,7.73717 7.41203,12.61392 9.75269,14.62949 -1.3654,4.03114 -1.91806,6.69674 -1.65799,7.9971 0.32509,1.82052 0.94297,1.82052 1.85322,0 1.69048,-3.31591 3.02305,-5.59179 3.99832,-6.82715 4.6163,2.34071 9.03769,3.47863 13.26388,3.41357 5.00642,-0.13013 9.26485,-0.61752 12.77583,-1.46276 1.75549,-0.39011 4.84387,-1.39814 9.2651,-3.02359 1.75549,3.05589 16.80242,3.84973 17.77769,3.78466 15.6694,-0.84524 15.6746,-0.8913 27.3779,-1.5415 v -0.009 c 5.20504,-0.25934 11.07402,-1.65662 17.94501,-4.86736 7.60713,-3.57601 13.94636,-8.09472 19.01779,-13.55624 3.12087,-5.65659 4.68113,-11.70342 4.68113,-18.14023 0,-7.41208 -2.73079,-14.53123 -8.19231,-21.35815 -4.87638,-6.11172 -9.10223,-9.16794 -12.67824,-9.16794 -3.77106,0 -7.28219,1.9183 -10.5331,5.75437 -3.57601,4.29122 -5.29931,9.39519 -5.16918,15.31184 0.13013,4.68133 1.20281,7.86701 3.21837,9.55748 1.61322,1.29057 4.3153,1.94063 8.10596,1.95036 -1.09238,-0.004 1.43985,-0.0678 7.59632,-0.19476 7.8022,-0.19505 12.22313,1.56028 13.26342,5.26633 -6.0467,5.7216 -11.80068,9.75283 -17.2622,12.09348 -5.7216,2.4707 -12.451,3.70595 -20.18819,3.70595 v 0.004 c -4.38367,0.0697 -9.68273,0.32883 -15.89704,0.77727 -5.78877,0.42211 -8.80945,0.64857 -9.0618,0.67922 11.37262,-4.87703 17.05934,-13.49093 17.05934,-25.84136 0,-4.74633 -2.89372,-9.03738 -8.68035,-12.87345 -5.7216,-3.83607 -11.86576,-5.75437 -18.4326,-5.75437 -8.84249,0 -17.48973,5.07139 -25.94211,15.21423 -4.94139,5.91667 -8.74494,11.02066 -11.41069,15.31186 -2.40566,4.16118 -4.77885,8.32228 -7.11952,12.48346 -5.39652,-3.25091 -8.64737,-7.73705 -9.75269,-13.45865 v -3.31597 c 0,-1.62545 -0.32501,-2.43795 -0.97519,-2.43795 -0.32509,0 -0.74784,0.32502 -1.26799,0.97519 -5.00642,6.30679 -8.41978,10.30541 -10.2403,11.99587 -4.22721,3.92089 -8.54097,5.99441 -12.94136,6.22082 -5.77697,-0.37193 -10.01313,-5.7289 -12.70837,-16.07112 -1.30037,-5.13643 -2.95839,-17.13232 -4.97396,-35.98763 -1.19443,-11.02855 -2.43784,-20.9845 -3.72979,-29.86757 14.17783,-0.0572 30.56471,-3.10466 49.16065,-9.1432 15.3097,-4.98776 29.8581,-11.1529 43.64378,-18.49602 -0.27712,1.87042 -0.41607,3.67165 -0.41607,5.40351 0,8.17443 2.63281,13.99325 7.89769,17.45698 1.9397,1.31622 4.84911,2.25169 8.7285,2.80588 1.59332,0.20785 3.32483,0.34592 5.19525,0.41517 v -0.10388 c 5.47268,0 11.91486,-1.73109 19.32727,-5.19482 8.10512,-3.81012 14.85943,-8.62465 20.26286,-14.44372 3.32517,-6.02692 4.98879,-12.46951 4.98879,-19.3277 0,-7.89732 -2.90986,-15.48274 -8.72894,-22.75658 -5.1956,-6.51181 -9.69847,-9.76845 -13.50857,-9.76845 -4.01795,0 -7.75892,2.04409 -11.22265,6.13131 -3.8101,4.57212 -5.64554,10.00956 -5.50698,16.31356 0.13857,4.98777 1.28133,8.382 3.42886,10.18316 1.71894,1.37514 4.59801,2.06872 8.63718,2.079 -1.16571,-0.004 1.53165,-0.073 8.09247,-0.20826 8.31297,-0.20783 13.02361,1.66313 14.13201,5.61179 -6.44256,6.09617 -12.57306,10.3908 -18.39213,12.88469 -6.09617,2.63244 -13.26649,3.94929 -21.51017,3.94929 -3.53302,0 -7.27355,-1.31685 -11.2222,-3.94929 -4.29505,-2.97882 -6.23434,-6.09647 -5.8187,-9.35238 0.48493,-4.08721 0.72734,-7.10051 0.72734,-9.04019 0,-1.38549 -0.72813,-1.9742 -2.18291,-1.76639 -11.56887,4.50287 -23.13769,9.00573 -34.70658,13.50858 -22.37574,7.82804 -41.94556,11.74173 -58.71004,11.74173 -1.61591,0 -3.1928,-0.027 -4.73106,-0.0814 -0.0258,-0.14451 -0.052,-0.28898 -0.0778,-0.43274 -4.6163,-25.48712 -14.5146,-91.84288 -16.46515,-91.90795 -1.56044,-0.065 -6.20044,5.71746 -7.30575,14.0398 4.01107,21.87058 9.13091,50.84911 13.54771,77.45298 -8.02636,-1.08863 -14.68819,-3.13382 -19.98578,-6.1358 -8.65934,-4.91849 -13.05921,-11.98492 -13.19776,-21.19846 -0.0376,-2.70542 0.34259,-5.42108 1.14071,-8.14687 5.14026,-3.69811 10.25219,-9.42084 12.17265,-14.6016 l 0.91175,-2.45955 -1.69577,1.23203 c -9.386,6.81958 -12.65425,8.78698 -17.2739,10.3968 -8.2737,2.88321 -9.00527,1.85999 -4.06174,-5.67924 3.08475,-4.7045 5.93687,-13.46233 5.85602,-17.9819 -0.028,-1.56258 0.38014,-2.47445 1.09393,-2.44289 0.62632,0.0277 2.86534,-0.25306 4.9753,-0.62388 l 3.8364,-0.67426 -0.0814,-4.26012 c -0.15265,-7.9865 -2.20562,-11.33949 -10.16742,-16.60413 -4.61084,-3.04887 -7.47997,-4.34258 -10.01043,-4.31679 z m 243.56861,0.12729 c -3.32519,7.48167 -4.98791,11.77674 -4.98791,12.88514 0,1.17767 2.39041,3.18579 7.17036,6.02605 4.43358,2.56317 6.96205,3.84539 7.58553,3.84539 1.31622,0 2.4932,-1.45493 3.53232,-4.36447 0.83129,-2.42461 1.24732,-4.50334 1.24732,-6.23521 0,-1.59331 -1.5242,-3.28976 -4.57228,-5.0909 -4.57214,-2.63244 -7.89712,-4.98776 -9.97534,-7.066 z m -50.23839,2.59763 c -1.03914,0 -2.7711,3.77517 -5.19571,11.32611 0,1.03912 4.57124,4.19094 13.71548,9.45582 1.31622,-1.38549 2.52918,-3.70528 3.63758,-6.96119 0.90059,-2.63244 1.35033,-4.50339 1.35033,-5.61178 0,-1.45477 -4.50197,-4.19103 -13.50768,-8.20896 z m -21.71843,1.97465 c -3.46373,7.62021 -5.19572,11.87976 -5.19572,12.78033 0,1.17767 2.39041,3.18669 7.17036,6.02695 4.50284,2.63244 7.06638,3.9493 7.68988,3.9493 1.31622,0 2.4941,-1.45493 3.53324,-4.36447 0.83129,-2.42461 1.24641,-4.50289 1.24641,-6.23476 0,-1.59332 -1.52376,-3.29066 -4.57184,-5.0918 -4.50285,-2.63244 -7.79409,-4.98731 -9.87233,-7.06555 z m -169.28404,6.38949 c 0.25049,-0.004 0.53805,0.14751 0.91131,0.40887 0.75035,0.52546 2.09054,2.53219 2.97816,4.45893 1.77233,3.84769 1.64672,4.03605 -2.55985,3.84584 -3.43506,-0.15533 -4.36834,-2.03372 -2.96242,-5.96263 0.7102,-1.98466 1.08174,-2.74285 1.6328,-2.75101 z m 6.38499,0.24919 c 1.5279,-0.0773 5.46877,2.27488 7.22389,4.39236 2.0504,2.47371 2.11456,2.40922 -3.30293,3.31012 -2.08749,0.34718 -2.23124,0.20361 -3.53052,-3.52558 -0.77825,-2.23368 -1.05979,-3.98976 -0.66212,-4.12832 0.079,-0.0277 0.16982,-0.0434 0.27168,-0.0486 z m 286.4846,12.26081 c -0.0225,0.001 -0.0446,0.004 -0.0661,0.008 -0.27497,0.0505 -0.43679,0.32837 -0.48578,0.83394 -1.14445,8.43986 -1.44071,12.99961 -0.88883,13.67859 2.25816,2.99051 3.55966,4.84408 3.90521,5.56096 3.81352,13.34645 6.66002,23.57155 8.53959,30.67543 5.27208,17.43031 9.97577,32.87964 14.1104,46.348 -1.58367,-0.26211 -3.0928,-0.71654 -4.5273,-1.36292 -2.89726,-2.85858 -5.06115,-4.8925 -6.49159,-6.10206 -0.46091,-0.31691 -0.77719,-0.21425 -0.94909,0.30812 0.0636,0.34521 0.18177,2.19728 0.35444,5.55644 0.13175,2.65282 0.36337,4.14971 0.6945,4.49041 4.96723,5.1107 8.27032,11.01779 9.90968,17.72147 0.23434,1.02774 -2.15028,4.09836 -7.15371,9.21157 -5.52927,5.65602 -11.44542,10.6693 -17.74844,15.03972 -7.88963,5.465 -14.86179,8.75369 -20.91644,9.86605 -17.08277,3.13843 -27.16058,-3.62116 -30.23416,-20.27861 -0.71664,-3.88386 -0.96405,-8.00997 -0.74173,-12.37865 0.11629,-2.51993 -0.0453,-4.36448 -0.48444,-5.53308 -0.48245,-1.16062 -0.90461,-0.90445 -1.26665,0.76828 -0.21062,0.79716 -0.34772,1.87081 -0.41158,3.22105 -0.42167,6.6808 -0.11485,12.82618 0.9203,18.4362 1.71198,9.27813 5.19843,16.17782 10.45935,20.69917 5.74567,4.9677 13.15912,6.61731 22.2411,4.94878 8.60627,-1.58115 18.46622,-7.2741 29.57925,-17.07915 9.38985,-8.23917 15.06301,-14.56845 17.01975,-18.98811 1.57315,-3.59068 1.81044,-8.36387 0.71159,-14.31913 -0.41405,-2.24399 -1.00709,-4.36575 -1.77853,-6.36564 1.11443,0.54916 2.31165,0.9384 3.59125,1.1677 3.80189,12.32608 7.05535,22.74167 9.76035,31.24712 1.73304,5.92473 2.76848,11.72935 3.10636,17.41379 0.26018,4.49259 0.7684,6.66963 1.52484,6.53073 0.48138,-0.0884 1.0606,-1.18807 1.73761,-3.29888 1.75763,-5.50189 1.5854,-13.94826 -0.51638,-25.33893 -0.59509,-3.22509 -1.34633,-6.52793 -2.25444,-9.90832 -1.33666,-4.84571 -3.01206,-10.62289 -5.02613,-17.33192 1.94144,-0.77915 3.99587,-2.06985 6.16369,-3.87148 2.595,-2.17219 4.46844,-4.25643 5.62032,-6.25275 2.85247,-4.89651 3.55835,-9.55465 2.1168,-13.97458 -0.99784,-2.98448 -3.59706,-6.16538 -7.79738,-9.54308 -4.61001,-3.65937 -7.21702,-6.03577 -7.82124,-7.12943 0.94006,0.005 2.01552,-0.10281 3.22647,-0.32521 0.73513,-0.13498 1.06283,-0.41859 0.98326,-0.85013 -0.0956,-0.51783 -0.76762,-1.13032 -2.01602,-1.8379 -3.54382,-1.75828 -6.53618,-3.19424 -8.97724,-4.30735 -0.76024,-0.48497 -1.14656,-0.0347 -1.15915,1.35078 0.17165,2.86857 0.3183,5.11724 0.43992,6.74573 0.0444,0.48264 0.52039,0.6405 1.42858,0.47364 2.34975,4.25309 5.91039,8.28356 10.682,12.09169 4.98442,3.99213 7.91854,6.68791 8.8027,8.08706 0.50521,0.79953 -0.93198,2.58062 -4.3123,5.34326 -3.29214,2.66815 -6.62971,4.44436 -10.01267,5.32884 -3.03108,-9.88458 -6.65556,-21.40088 -10.87316,-34.54916 -7.2618,-22.78706 -11.00116,-35.15385 -11.21817,-37.10044 2.29266,1.63619 4.41897,2.94834 6.37869,3.93626 0.6949,0.29791 1.17962,0.42153 1.45469,0.37108 0.41269,-0.0759 0.56827,-0.388 0.4669,-0.93694 -0.31653,-1.71547 -2.77058,-5.76963 -7.36287,-12.16231 -2.89867,-4.1498 -5.83167,-8.2932 -8.79912,-12.43038 -1.72654,-2.63806 -2.93961,-3.93908 -3.63892,-3.90297 z m -203.09236,10.78186 c -2.55319,0 -4.70091,6.1452 -6.45112,18.45823 l -1.23832,8.71184 -0.97653,-5.59422 c -1.30292,-7.46331 -2.65943,-11.44353 -4.99734,-14.66458 -2.71253,-3.73711 -4.00213,-3.49449 -5.85198,1.10023 -1.1914,2.95956 -1.39968,4.11903 -0.96708,5.38731 0.92726,2.71869 3.19947,4.56614 4.89659,3.98124 1.42574,-0.49136 1.6255,-0.2169 2.8864,3.97045 1.57195,5.22039 3.61419,14.45179 3.61419,16.33649 0,0.71389 0.23688,1.29814 0.52628,1.29814 0.9873,0 2.15508,-4.93722 3.4671,-14.65737 1.97737,-14.64895 3.25001,-17.36228 6.14255,-13.09835 1.27137,1.87406 1.30667,1.87864 2.06012,0.26178 1.22429,-2.62713 0.92287,-5.96498 -0.80021,-8.85938 -0.86186,-1.44768 -1.90182,-2.63181 -2.31065,-2.63181 z m 244.77183,14.05734 c -1.56668,-0.062 -4.886,7.26535 -6.75834,15.21917 -1.4065,5.97548 -1.47915,10.02382 -0.21005,11.69586 h -4.5e-4 c 0.42971,0.56606 1.62405,0.88613 3.30606,0.88613 2.25396,0 2.93627,-0.29989 4.7396,-2.08126 1.76725,-1.74566 2.19756,-2.64312 2.66916,-5.57039 0.75142,-4.6644 0.0956,-6.98101 -2.94623,-10.40311 l -2.46268,-2.77037 1.14026,-3.25704 c 0.62707,-1.79154 1.0237,-3.38461 0.88161,-3.53997 -0.10568,-0.11557 -0.22626,-0.1738 -0.35894,-0.17902 z m -144.11694,2.34528 c 2.28605,0 4.29508,0.72679 6.02695,2.18157 0.2771,0.20781 1.83634,1.87052 4.67662,4.98789 v 9e-4 c -1.59332,-0.27712 -3.18719,-0.48578 -4.78052,-0.62433 -2.07823,0.0692 -4.12099,0.10388 -6.12996,0.10388 -2.84027,-0.0694 -4.64194,-0.69262 -5.40398,-1.87028 0.20785,-3.18664 2.07787,-4.77965 5.61089,-4.77965 z m 140.57561,11.29598 c 1.05104,0.0246 5.75572,4.07749 5.75572,4.95821 0,0.45506 -1.26298,1.51585 -2.80678,2.35698 -1.54379,0.84118 -3.07533,1.52935 -3.40324,1.52935 -0.87619,0 -1.89234,-1.27573 -1.89234,-2.37542 0,-1.75921 1.71392,-6.48314 2.34664,-6.46912 z m -41.0322,18.04982 c -0.32202,0.004 -0.66155,0.0388 -1.01837,0.10443 -0.95144,0.1747 -1.94788,1.31719 -2.98941,3.42706 -1.04151,2.10988 -1.47465,3.63953 -1.29948,4.58893 0.31053,1.68301 1.09385,2.89987 2.35023,3.65062 1.30305,0.51909 2.60624,1.03813 3.90926,1.55723 -0.72519,2.85488 -3.5766,7.39402 -8.55396,13.61787 -3.01624,3.76657 -6.01471,7.50767 -8.99565,11.22312 0.18556,0.2781 0.47261,0.3819 0.86181,0.31036 1.85967,-0.34156 5.16225,-3.64779 9.90744,-9.91822 4.70192,-6.26249 7.67627,-11.22631 8.92279,-14.89083 1.68088,0.62814 3.16239,1.02518 4.445,1.19109 0.45633,0.05 0.75237,-0.40557 0.88791,-1.36741 0.17092,-1.01295 0.059,-1.86265 -0.336,-2.54861 -1.41797,-0.89954 -2.74114,-1.52622 -3.96909,-1.88064 0.31088,-1.70793 0.33885,-3.25251 0.0841,-4.63345 -0.55042,-2.98301 -1.95241,-4.46009 -4.20659,-4.43148 z m -0.0737,4.39999 c 1.06999,0.0475 1.77921,1.01506 2.12758,2.90305 0.1037,0.56101 0.11646,1.11646 0.0392,1.66609 -2.7552,-0.87695 -4.15579,-1.80163 -4.20119,-2.77486 -0.0126,-0.80061 0.35692,-1.33737 1.11147,-1.60985 0.12186,-0.067 0.26919,-0.11665 0.44216,-0.14846 0.1677,-0.0309 0.328,-0.0428 0.48085,-0.036 z m -68.42539,12.27117 c -11.75394,5.60361 -20.91111,10.07955 -27.47145,13.42806 -16.19587,8.67876 -27.8132,15.03404 -34.85188,19.06592 l -0.51187,5.53577 c 14.82911,-8.40545 26.48019,-14.76166 34.95397,-19.06684 12.64235,-6.21866 21.76529,-10.66034 27.3689,-13.32549 z m -208.13468,14.41358 c -2.28416,0 -4.20569,4.86011 -5.77146,14.59801 l -1.10788,6.88968 -0.87352,-4.42386 c -1.16566,-5.90241 -2.37902,-9.05037 -4.47062,-11.59779 -2.42671,-2.95551 -3.58079,-2.7634 -5.23574,0.87038 -1.06598,2.34061 -1.25198,3.25751 -0.86498,4.26055 0.82958,2.15009 2.86238,3.61125 4.38066,3.14864 1.27553,-0.38858 1.45386,-0.17146 2.58189,3.1401 0.81765,2.4004 1.77759,5.87283 2.43795,8.65247 -0.52655,0.20656 -1.03257,0.53033 -1.34762,0.89243 -0.95933,1.10246 -2.70405,7.45013 -2.19371,7.98091 0.14208,0.14792 0.97661,-0.44724 1.85455,-1.32199 1.1514,-1.14711 1.91803,-1.48447 2.75057,-1.20953 1.68439,0.55601 1.41594,1.27154 -0.75703,2.01738 -2.41416,0.82864 -4.54888,3.43636 -5.03962,6.15694 -0.25703,1.42492 0.19843,5.25909 1.41059,11.87939 0.9844,5.37649 2.00402,13.00039 2.26612,16.94193 0.2622,3.94148 0.50748,7.29502 0.54472,7.45285 0.0373,0.1578 0.31034,-0.48714 0.60678,-1.43309 0.74605,-2.38063 0.70004,-13.55079 -0.0778,-18.88782 -0.35428,-2.43063 -1.2407,-6.52778 -1.9697,-9.10497 -1.32265,-4.6763 -1.32297,-4.68802 -0.22221,-5.6455 1.1902,-1.03535 4.43026,-2.37571 8.0079,-3.31283 1.76797,-0.46308 2.43253,-1.01232 3.16933,-2.61922 0.51278,-1.11842 0.93245,-2.37715 0.93245,-2.79688 0,-1.75796 -3.80144,-5.23535 -6.74709,-6.62745 0.37681,-1.75609 0.7707,-3.97822 1.18029,-6.66074 1.769,-11.58528 2.90709,-13.73119 5.49483,-10.35902 1.13743,1.48208 1.16923,1.48564 1.84331,0.20691 1.09528,-2.0777 0.82544,-4.71711 -0.71609,-7.00619 -0.77103,-1.14487 -1.70111,-2.08169 -2.06686,-2.08169 z m 103.94837,2.90035 c -2.4939,9.62921 -3.74104,13.92472 -3.74104,12.8856 0,1.31624 1.00518,2.52873 3.01414,3.63712 4.08721,2.00899 8.17362,4.05174 12.26082,6.12996 2.90953,-3.46373 4.36447,-7.51552 4.36447,-12.15691 0,-1.38551 -1.83499,-2.94475 -5.50653,-4.67662 -5.05707,-2.35534 -8.52144,-4.29508 -10.39186,-5.81915 z m 84.37146,1.84915 c -2.06038,7.62887 -3.09062,11.05315 -3.09062,10.27356 0,1.00235 0.83532,1.94912 2.50587,2.84009 3.22975,1.67055 6.48749,3.34115 9.77294,5.01174 2.33877,-2.72858 3.50803,-6.01385 3.50803,-9.85616 0,-1.16941 -1.44767,-2.42258 -4.34333,-3.75902 -4.1764,-1.949 -6.96077,-3.45218 -8.35289,-4.51021 z m -101.52077,3.20172 c -1.56668,-0.062 -4.88644,7.26536 -6.75879,15.21919 -1.4065,5.97547 -1.47918,10.02379 -0.21006,11.69585 0.42972,0.56604 1.62406,0.88612 3.30608,0.88612 2.25395,0 2.93626,-0.29951 4.7396,-2.0808 1.76725,-1.74568 2.19755,-2.64358 2.66916,-5.57086 0.75142,-4.66438 0.0951,-6.98055 -2.94669,-10.40266 l -2.46223,-2.77035 1.13981,-3.2575 c 0.62708,-1.79153 1.0237,-3.38461 0.88162,-3.53998 -0.10569,-0.11539 -0.22577,-0.17344 -0.3585,-0.17901 z m 168.79825,10.27987 c -0.47649,0.028 -0.7,0.60942 -0.67111,1.74569 -0.24548,3.89042 -0.50664,6.88233 -0.78268,8.97589 0.29876,0.96649 0.57338,1.6373 0.82315,2.01197 0.29727,0.3058 1.91392,0.91022 4.85027,1.81272 3.19077,0.97593 5.31015,1.3675 6.35845,1.1749 0.87377,-0.16069 1.35749,-1.78141 1.45108,-4.86285 -0.0635,-1.97123 -0.0971,-3.94788 -0.10083,-5.92981 0.0399,-1.08863 -0.13067,-1.68796 -0.51234,-1.79832 -0.38161,-0.11018 -0.78672,-0.18577 -1.21582,-0.22715 -3.81601,-1.10141 -6.66233,-1.84029 -8.53821,-2.21664 z m 68.29765,1.81721 c -0.57908,6.84804 -0.90066,10.09896 -0.96439,9.75315 0.1641,0.88917 1.03682,1.59689 2.61831,2.12354 3.20338,0.99472 6.37762,1.96928 9.52239,2.92373 1.54662,-2.99101 2.01893,-6.11637 1.41734,-9.37666 -0.18227,-0.98797 -1.66994,-1.83824 -4.46297,-2.55084 -3.93291,-1.06502 -6.64298,-2.02263 -8.13068,-2.87292 z m -240.63767,1.54419 c 1.05103,0.0246 5.75616,4.07793 5.75616,4.95866 0,0.45506 -1.26298,1.51541 -2.80678,2.35653 -1.54378,0.84116 -3.07533,1.52935 -3.40324,1.52935 -0.87619,0 -1.89233,-1.27574 -1.89233,-2.37543 0,-1.7592 1.71346,-6.48314 2.34619,-6.46911 z m -64.95109,18.6503 c -0.64733,-0.0246 -1.46365,0.67507 -2.40916,2.1006 -1.76158,2.65595 -2.82506,9.57292 -1.8523,12.04805 0.78179,1.98922 2.71468,1.79336 6.52084,-0.66121 3.0042,-1.9355 4.71999,-2.49363 5.95228,-1.92877 1.00905,0.46249 0.70686,0.83751 -2.85087,3.53503 -3.16571,2.40026 -8.10636,4.77287 -9.65149,4.63435 -0.67622,-0.0607 -0.67475,-0.0516 0.1048,0.81864 0.95428,1.06543 2.36276,1.70933 3.67717,1.67777 1.28521,-0.028 3.34141,-1.09194 5.90235,-3.04967 4.72069,-3.60871 5.2539,-4.64692 4.14047,-8.06009 -0.52518,-1.60983 -0.73467,-1.94578 -1.57837,-2.53195 -1.59915,-1.11108 -3.06784,-0.88332 -5.60009,0.86813 -2.35978,1.6321 -4.76143,2.71319 -5.46334,2.45998 -0.37172,-0.13426 -0.43925,-0.30544 -0.41247,-1.04894 0.0384,-1.06576 1.47832,-4.73284 2.43929,-6.21273 0.68118,-1.04911 1.8772,-1.48233 2.15323,-0.77996 0.29375,0.74765 0.56563,0.0848 0.42101,-1.02645 -0.24295,-1.8657 -0.75969,-2.8169 -1.49335,-2.84278 z m 179.4618,0.0936 c 2.14561,0 4.03085,0.68303 5.65631,2.04843 0.26007,0.19505 1.72307,1.75536 4.38875,4.68113 -1.49539,-0.26008 -2.99052,-0.45507 -4.48592,-0.5852 -1.95054,0.0651 -3.86883,0.0976 -5.75436,0.0976 -2.66575,-0.0651 -4.35635,-0.65029 -5.07156,-1.7556 0.19507,-2.99085 1.95087,-4.48637 5.26678,-4.48637 z m -54.22547,10.04553 c 3.1859,0 7.02202,1.13792 11.50829,3.41357 5.13645,2.73077 8.7123,5.94904 10.72787,9.65509 -4.68131,4.74632 -11.47545,9.10254 -20.38296,13.06867 -9.55769,4.2912 -17.97771,6.43672 -25.25976,6.43672 -6.30678,0 -11.08573,-0.22722 -14.33665,-0.68235 5.59158,-9.36264 9.85046,-15.66973 12.77628,-18.92064 7.67216,-8.64744 15.99441,-12.97106 24.96693,-12.97106 z M 101.0889,361.3178 c -1.566673,-0.062 -4.885994,7.26492 -6.758336,15.21874 -1.406502,5.97548 -1.479197,10.02425 -0.210058,11.69631 h -4.51e-4 c 0.429714,0.56605 1.624051,0.88611 3.306075,0.88611 2.253946,0 2.9367,-0.29982 4.74005,-2.08125 1.76725,-1.74566 2.1971,-2.64356 2.6687,-5.57085 0.75143,-4.66438 0.0956,-6.98056 -2.94622,-10.40266 l -2.462694,-2.77035 1.140254,-3.25704 c 0.62709,-1.79155 1.02371,-3.38463 0.88162,-3.53998 -0.10564,-0.11539 -0.22617,-0.1738 -0.35894,-0.17901 z m 383.49649,9.27141 c -8.81231,7.87242 -15.66071,14.11754 -20.54578,18.73531 -11.99767,11.8179 -20.58424,20.42646 -25.75905,25.82607 l 0.41652,5.70578 c 10.91572,-11.28582 19.53025,-19.90095 25.84316,-25.8454 9.44936,-8.66155 16.27481,-14.86581 20.47697,-18.61252 z m -119.53009,3.94973 c -0.52485,0.0108 -1.14111,0.23113 -1.82306,0.68012 -0.58976,0.38818 -1.97651,2.00046 -3.08208,3.5827 -2.00602,2.87075 -2.01354,2.87643 -3.50128,2.64216 -2.54032,-0.4 -4.20075,1.10714 -9.68747,8.79236 -3.04445,4.26433 -5.51861,7.31668 -6.78713,8.3736 -1.09786,0.91469 -1.99625,1.77007 -1.99625,1.90088 0,0.38718 1.63897,-0.28337 3.39739,-1.38991 1.14848,-0.72263 2.68164,-2.48398 5.11025,-5.87087 4.12047,-5.74634 6.13564,-7.39162 8.81799,-7.20049 4.46669,0.31808 5.80337,0.13499 7.42675,-1.01701 2.68266,-1.90338 3.99248,-4.4086 3.99248,-7.63681 0,-1.87248 -0.7129,-2.87786 -1.86759,-2.85673 z m -267.507723,0.42014 c 1.051039,0.0246 5.755713,4.07749 5.755713,4.95821 0,0.45505 -1.26298,1.5154 -2.80678,2.35652 -1.543787,0.84117 -3.074883,1.5298 -3.402788,1.5298 -0.87619,0 -1.892783,-1.27574 -1.892783,-2.37543 0,-1.7592 1.71391,-6.48314 2.346638,-6.4691 z m 266.475863,2.6624 c 2.26049,0.018 2.05646,1.75534 -0.35219,2.99794 -0.93434,0.482 -2.34557,1.02444 -3.13606,1.20504 l -1.43713,0.32836 0.61445,-0.9491 c 1.02654,-1.58616 3.43732,-3.58925 4.31093,-3.58224 z m -195.77633,37.06976 c -14.80143,7.0978 -26.31398,12.76717 -34.537,17.00852 -20.60083,11.07946 -35.358923,19.12926 -44.274407,24.14964 l -0.64907,7.01111 c 18.696547,-10.64661 33.454647,-18.69647 44.274407,-24.14962 16.01325,-7.87679 27.56878,-13.50275 34.66655,-16.87852 z" /></svg>
